<?xml version="1.0" encoding="UTF-8" standalone="no"?>
<!-- Generator: Adobe Adobe Illustrator 24.2.0, SVG Export Plug-In . SVG Version: 6.00 Build 0)  -->

<svg
   version="1.1"
   id="Ebene_3"
   x="0px"
   y="0px"
   width="255.12px"
   height="255.12px"
   viewBox="0 0 255.12 255.12"
   style="enable-background:new 0 0 255.12 255.12;"
   xml:space="preserve"
   sodipodi:docname="heloise.svg"
   inkscape:version="1.4 (e7c3feb100, 2024-10-09)"
   xmlns:inkscape="http://www.inkscape.org/namespaces/inkscape"
   xmlns:sodipodi="http://sodipodi.sourceforge.net/DTD/sodipodi-0.dtd"
   xmlns="http://www.w3.org/2000/svg"
   xmlns:svg="http://www.w3.org/2000/svg"><defs
   id="defs12" /><sodipodi:namedview
   id="namedview12"
   pagecolor="#ffffff"
   bordercolor="#999999"
   borderopacity="1"
   inkscape:showpageshadow="0"
   inkscape:pageopacity="0"
   inkscape:pagecheckerboard="0"
   inkscape:deskcolor="#d1d1d1"
   showgrid="false"
   inkscape:zoom="2.9829101"
   inkscape:cx="127.56"
   inkscape:cy="127.72762"
   inkscape:window-width="1920"
   inkscape:window-height="1016"
   inkscape:window-x="0"
   inkscape:window-y="0"
   inkscape:window-maximized="1"
   inkscape:current-layer="Ebene_3" />
<g
   id="g12"
   transform="matrix(1.8806735,0,0,1.8806735,-112.34514,-108.58301)">
	<g
   id="g2">
		<g
   id="g1">
			<path
   d="m 89.72,83.54 c -0.44,2.36 -0.18,4.05 1.07,6.11 0.66,1.09 3.4,-1.04 3.82,-1.37 2.01,-1.54 6.62,1.64 7.79,2.94 2.16,2.4 3.03,5.61 3.62,8.71 1.34,7.08 2.07,14.54 1.77,21.75 -0.31,7.35 -1.96,15.53 -6.58,21.46 -4.32,5.56 -11.33,7.99 -18.1,8.72 -2.33,0.25 -5.74,3.85 -6.11,6.11 -0.62,3.8 -1.77,7.25 -4.16,10.33 -0.73,0.93 -2.56,3.23 -0.9,4.04 1.47,0.72 4.58,-2.61 5.24,-3.46 3.68,-4.72 6.26,-9.78 7.22,-15.73 -2.04,2.04 -4.07,4.07 -6.11,6.11 19.72,-2.12 34.3,-19.35 36.58,-38.47 1.18,-9.92 0.97,-22.44 -2.68,-31.88 -3.23,-8.37 -11.28,-10.22 -18.15,-4.96 1.27,-0.46 2.55,-0.91 3.82,-1.37 -0.88,-1.17 -1.13,-2.46 -0.75,-3.86 0.41,-2.17 -2.05,-1.02 -3.01,-0.47 -1.69,0.97 -4,3.26 -4.38,5.29 z"
   id="path1" />
		</g>
	</g>
	<g
   id="g9">
		<g
   id="g4">
			<g
   id="g3">
				<path
   d="m 137.23,121.08 c 0.15,0.04 0.3,0.07 0.45,0.11 1.78,0.43 4.35,-2.36 5.24,-3.46 0.12,-0.15 0.24,-0.3 0.36,-0.45 0.78,-0.96 2.03,-2.53 1.37,-3.82 -1.9,-3.7 -7.12,1.54 -8.34,3.42 -2.44,3.75 0.3,6.2 4.08,4.09 3.45,-1.93 7.19,-6.61 5.39,-10.71 -1.88,-4.29 -7.16,-4.55 -10.87,-2.76 -12.16,5.83 -11.96,19.75 -13.07,31.26 -0.68,7.01 -0.8,14.4 -2.58,21.24 -0.97,3.72 -3.84,10.77 -8.95,6.74 -1.27,-1.01 -1.79,-2.63 -2.24,-4.13 -0.1,-0.35 -0.75,-4.05 -1.33,-3.27 -1.26,1.04 -2.51,2.08 -3.77,3.11 0.44,0.45 0.65,1.01 0.63,1.67 0.52,2.34 8.1,-3.41 7.5,-6.14 -0.17,-0.78 -0.35,-1.57 -0.52,-2.35 -0.06,-0.39 -0.28,-0.62 -0.68,-0.68 -3.57,-0.58 -6.77,2.5 -8.6,5.3 -2.13,3.25 -1.55,6.95 -0.07,10.43 4.05,9.54 14.73,2 19.12,-3.17 7,-8.26 7.45,-18.64 8.45,-28.96 0.56,-5.75 0.99,-11.53 1.67,-17.27 0.29,-2.45 0.25,-7.6 3.63,-7.39 2.12,0.13 5.74,2.72 4.38,5.21 1.04,-1.26 2.08,-2.51 3.11,-3.77 -0.26,0.2 -0.53,0.4 -0.79,0.6 1.12,-0.53 2.24,-1.05 3.36,-1.58 -0.52,0.09 -1.03,0.17 -1.55,0.26 -1.67,1.67 -3.33,3.33 -5,5 -0.29,0.32 -0.3,0.64 -0.01,0.94 0.46,-1.27 0.91,-2.55 1.37,-3.82 -0.12,0.15 -0.24,0.3 -0.36,0.45 1.75,-1.15 3.49,-2.31 5.24,-3.46 -0.15,-0.04 -0.3,-0.07 -0.45,-0.11 -2.68,-0.67 -8.59,6.88 -6.17,7.47 z"
   id="path2" />
			</g>
		</g>
		<g
   id="g6">
			<g
   id="g5">
				<path
   d="m 77.47,165.13 c -6.39,-5.76 -7.63,-17.86 -8.98,-25.93 -1.58,-9.46 -1.58,-18.81 1.17,-28.06 4.88,-16.41 19.28,-29.96 35.69,-34.61 15.78,-4.47 35.38,-1.73 49.32,6.92 12.69,7.87 22.41,20.41 27.9,34.21 6.87,17.27 9.58,43.89 -8.74,55.29 0.8,-0.29 1.59,-0.58 2.39,-0.86 -5.85,-2.53 -11.7,-5.05 -17.55,-7.58 -2.29,-0.99 -8.75,6.37 -6.14,7.5 2.92,1.26 5.85,2.53 8.77,3.79 2.15,0.93 6.35,3.78 8.77,3.79 3.91,0.01 8.94,-5.55 11.47,-8.14 6.77,-6.93 11.44,-15.94 13.04,-25.5 3.46,-20.67 -5.47,-43.29 -19.46,-58.43 C 160.81,72.04 139.86,65.14 118.98,67.43 98.65,69.65 81.66,83.26 70.15,99.5 c -7.23,10.21 -10.77,22.98 -10.3,35.46 0.26,6.97 1.64,13.87 3.3,20.63 1.44,5.85 2.58,12.41 7.24,16.61 1.98,1.78 8.92,-5.41 7.08,-7.07 z"
   id="path4" />
			</g>
		</g>
		<g
   id="g8">
			<g
   id="g7">
				<path
   d="m 161.37,160.99 c -5.09,-25.11 -7.84,-52.21 3.08,-76.23 0.84,-1.84 -0.14,-2.34 -1.8,-1.8 -1.98,0.65 -4.16,3.15 -5,5 -11.4,25.06 -9.1,52.89 -3.78,79.17 0.47,2.31 8.06,-3.39 7.5,-6.14 z"
   id="path6" />
			</g>
		</g>
	</g>
	<g
   id="g11">
		<g
   id="g10">
			<path
   d="m 143.2,145.71 c 2.4,-0.04 5.1,0.22 7.39,0.95 2.52,0.8 8.67,-6.69 6.14,-7.5 -2.3,-0.73 -4.99,-0.99 -7.39,-0.95 -2.05,0.03 -4.04,1.94 -5.24,3.46 -0.32,0.42 -2.78,4.07 -0.9,4.04 z"
   id="path9" />
		</g>
	</g>
</g>
</svg>
